# xmcd
#
# Track frame offsets:
#	150
#	24027
#	42565
#	62837
#
# Disc length: 988 seconds
#
# Revision: 1
# Processed by: cddbd v1.4PL0 Copyright (c) Steve Scherf et al.
# Submitted via: audiograbber 1.82.02
#
DISCID=2b03da04
DTITLE=Van Morrison and John Lee Hooker - Gloria
DYEAR=1993
DGENRE=
TTITLE0=Gloria
TTITLE1=Whenever God shines his light
TTITLE2=It fills you up
TTITLE3=Star of the county down
EXTD=CD Single\n
EXTT0=
EXTT1=
EXTT2=
EXTT3=
PLAYORDER=
